pppppppppppppppp       TTTTTTTTTTTTTTTTTTTTTTTTTTTTT
pppppppp       pp      TTTTTTTTTTTTTTTTTTTTTTTTTTTTT    
pppppppp        pp     TT        TTTTTT           TT     
pppppppp         pp    TT        TTTTTT           TT 
pppppppp         pp    T         TTTTTT            T
pppppppp         pp              TTTTTT
pppppppp         pp              TTTTTT
pppppppp        pp               TTTTTT
pppppppp       pp                TTTTTT
pppppppppppppppp                 TTTTTT
pppppppp                         TTTTTT
pppppppp                         TTTTTT
pppppppp                         TTTTTT
pppppppp                         TTTTTT 
pppppppp        p     k   k ii   TTTTTT   EEEEEE     AA     M       M
pppppppp       p p    k  k  ii   TTTTTT   E          AA     MM     MM
pppppppp       p p    k k   ii   TTTTTT   E         AAAA    M M   M M
pppppppp       p p    kk    ii   TTTTTT   EEEEEE   A   A    M  M M  M
pppppppp      p   p   k k   ii   TTTTTT   E       AA   AA   M   M   M
pppppppp     pppppp   k  k  ii   TTTTTT   E       AAAAAAA   M       M 
pppppppp     p     p  k   k ii   TTTTTT   EEEEEE A      AA  M       M
..............................................................................
                       DrSeeder zahid657@gmail.com
..............................................................................


RIPPED BY DRSEEDER

General
Complete name                    : F:\COMPLETE\Evil.Things.2010.DVDRip.XviD.AC3-playXDPAK TEAMm.avi
Format                           : AVI
Format/Info                      : Audio Video Interleave
File size                        : 538 MiB
Duration                         : 1h 26mn
Overall bit rate                 : 873 Kbps

Video
ID                               : 0
Format                           : AVC
Format/Info                      : Advanced Video Codec
Format profile                   : High@L5.1
Format settings, CABAC           : Yes
Format settings, ReFrames        : 1 frame
Codec ID                         : H264
Duration                         : 1h 26mn
Bit rate                         : 767 Kbps
Width                            : 720 pixels
Height                           : 400 pixels
Display aspect ratio             : 16:9
Frame rate                       : 23.976 fps
Color space                      : YUV
Chroma subsampling               : 4:2:0
Bit depth                        : 8 bits
Scan type                        : Progressive
Bits/(Pixel*Frame)               : 0.111
Stream size                      : 473 MiB (88%)

Audio
ID                               : 1
Format                           : MPEG Audio
Format version                   : Version 1
Format profile                   : Layer 3
Codec ID                         : 55
Codec ID/Hint                    : MP3
Duration                         : 1h 26mn
Bit rate mode                    : Constant
Bit rate                         : 96.0 Kbps
Channel(s)                       : 2 channels
Sampling rate                    : 44.1 KHz
Compression mode                 : Lossy
Stream size                      : 59.2 MiB (11%)
Alignment                        : Split accross interleaves
Interleave, duration             : 42 ms (1.00 video frame)
Writing library                  : LAMELAME_MAJOR_VERSI

